<?xml version="1.0" encoding="utf-8"?>
<svg xmlns="http://www.w3.org/2000/svg" viewBox="957.4805 35.1986 441.5911 430.7279" width="441.591px" height="430.728px">
  <g transform="matrix(1.0192149877548218, 0, 0, 1, -0.5147299766540527, 1.4210854715202004e-14)">
    <path fill="#5B5B5F" d="M1326,244.9c0,0,0-0.5,0-1.6c0-1,0-2.5-0.2-4.3c-0.1-1.9-0.3-4.1-0.5-6.6c-0.3-2.5-0.6-5.4-1-8.4 c-1.7-12.2-5.5-27.7-10.7-41.2c-1.4-3.3-2.6-6.8-4.2-10.2c-0.4-0.9-0.8-1.7-1.2-2.6c-0.2-0.4-0.4-0.9-0.6-1.3 c-0.2-0.4-0.4-0.9-0.7-1.3c-0.9-1.7-1.8-3.5-2.7-5.3c-3.8-7.2-8.5-14.8-14.7-22.8c-6.2-8-14.1-16.5-24.5-24.9 c-5.1-4.3-11-8.2-17.5-12.3c-6.6-3.9-13.9-7.6-22-10.9c-8.1-3.2-18.3-6.7-30.2-9.2c-0.7-0.2-1.5-0.4-2.2-0.5 c-0.8-0.1-1.5-0.3-2.3-0.4c-1.5-0.3-3.1-0.5-4.7-0.8l-1.2-0.2l-1.2-0.1c-0.8-0.1-1.6-0.2-2.4-0.3c-1.6-0.2-3.3-0.4-5-0.6 c-1.7-0.1-3.4-0.2-5.1-0.4c-1.7-0.1-3.5-0.3-5.2-0.3c-3.5-0.1-7.1-0.3-10.8-0.1c-1.8,0.1-3.7,0.1-5.5,0.2 c-1.8,0.1-3.7,0.3-5.6,0.4c-0.9,0.1-1.9,0.1-2.8,0.2c-0.9,0.1-1.9,0.2-2.8,0.4c-1.9,0.2-3.8,0.5-5.7,0.7c-1.9,0.3-3.8,0.7-5.7,1 c-1,0.2-1.9,0.3-2.9,0.5c-1,0.2-1.9,0.4-2.9,0.7c-1.9,0.5-3.8,0.8-5.7,1.3c-1.9,0.5-3.8,1.1-5.7,1.6c-7.6,2.3-15.2,5-22.6,8.5 l-2.8,1.2l-2.7,1.4l-2.7,1.4c-0.9,0.5-1.8,0.9-2.7,1.4l-5.3,3c-0.9,0.5-1.7,1-2.6,1.6l-2.6,1.6l-2.6,1.6c-0.8,0.6-1.7,1.2-2.5,1.8 c-1.6,1.2-3.3,2.3-4.9,3.5c-1.6,1.2-3.2,2.5-4.8,3.7l-1.2,0.9l-1.1,1l-2.3,2c-3.1,2.5-5.9,5.4-8.8,8.1c-1.4,1.4-2.7,2.9-4.1,4.3 c-0.7,0.7-1.4,1.4-2,2.1c-0.6,0.7-1.3,1.5-1.9,2.2c-0.6,0.7-1.3,1.5-1.9,2.2c-0.6,0.7-1.3,1.4-1.9,2.2c-1.2,1.5-2.4,3-3.6,4.5 l-0.9,1.1l-0.8,1.2c-0.5,0.8-1.1,1.5-1.6,2.3c-1.1,1.5-2.2,3-3.2,4.6c-1,1.6-2,3.1-3,4.6c-0.5,0.8-1,1.5-1.4,2.3 c-0.5,0.8-0.9,1.6-1.3,2.3c-0.4,0.8-0.9,1.6-1.3,2.3l-0.7,1.2l-0.6,1.2c-0.8,1.6-1.6,3.1-2.4,4.7c-0.8,1.5-1.5,3.1-2.2,4.6 c-0.7,1.5-1.4,3.1-2.1,4.6c-0.6,1.5-1.2,3.1-1.8,4.6c-0.6,1.5-1.2,3-1.7,4.5c-2.1,5.9-3.7,11.6-5,17c-0.3,1.3-0.6,2.7-0.9,3.9 c-0.1,0.6-0.3,1.3-0.4,1.9c-0.1,0.6-0.2,1.3-0.3,1.9c-0.4,2.5-0.8,4.9-1.2,7.2c-0.3,2.3-0.5,4.5-0.7,6.5c-0.1,1-0.2,2-0.3,3 c-0.1,1-0.1,1.9-0.2,2.8c-0.1,2.1-0.3,4.6-0.3,7.5c0,1.5,0,3,0,4.7c0,0.4,0,0.8,0,1.3c0,0.4,0,0.9,0.1,1.3c0,0.9,0.1,1.8,0.1,2.7 c0.2,7.3,1.2,16.1,3,25.6c1.8,9.5,4.7,19.8,8.9,30.2c4.1,10.4,9.6,20.9,16.1,30.8c6.5,9.9,14.2,19.2,22.6,27.5 c8.3,8.3,17.4,15.5,26.4,21.4c9,5.9,18,10.6,26.3,14.2c2,1,4.1,1.7,6.1,2.5c1,0.4,2,0.8,2.9,1.2c0.9,0.4,1.9,0.7,2.8,1 c1.9,0.6,3.6,1.3,5.3,1.8c1.7,0.5,3.4,1,4.9,1.5c3.1,1,6.6,1.7,10.3,2.6c0.9,0.2,1.9,0.4,2.8,0.6c1,0.2,1.9,0.4,2.9,0.5 c1,0.2,2,0.4,3,0.6c1,0.2,2.1,0.3,3.1,0.4c8.5,1.3,17.9,1.8,27.9,1.6c10-0.3,20.5-1.4,30.9-3.7c10.5-2.3,20.9-5.6,30.8-9.9 c9.9-4.3,19.3-9.5,27.8-15.2c8.5-5.7,16-12,22.5-18.2c0.8-0.8,1.7-1.5,2.4-2.3c0.8-0.8,1.5-1.6,2.3-2.3c1.5-1.5,3-3,4.3-4.6 c1.4-1.5,2.7-3,3.9-4.4c1.2-1.5,2.4-2.9,3.5-4.3c0.6-0.7,1.1-1.4,1.7-2c0.5-0.7,1-1.4,1.5-2c1-1.3,1.9-2.6,2.8-3.7 c0.5-0.6,0.9-1.2,1.2-1.8c0.4-0.6,0.8-1.1,1.1-1.7c0.7-1.1,1.4-2.1,2.1-3c4.5-6.8,8.7-14.7,12.1-23c3.4-8.4,5.9-17.1,7.7-25.5 c0.4-2.1,0.8-4.2,1.2-6.2c0.3-2,0.6-4.1,0.8-6c0.1-1,0.3-1.9,0.4-2.9c0.1-1,0.2-1.9,0.2-2.8c0.1-1.9,0.3-3.7,0.4-5.4 c0.1-1.7,0.1-3.4,0.2-5c0-1.6,0.2-3.1,0.1-4.5c0-2.8,0-5.3,0-7.4h-7.2c-0.1,2.1-0.1,4.5-0.2,7.2c0,0.3,0,0.7,0,1 c0,0.3-0.1,0.7-0.1,1.1c0,0.7-0.1,1.4-0.2,2.2c-0.1,1.5-0.2,3.1-0.3,4.7c-0.2,1.6-0.4,3.3-0.6,5.1c-0.1,0.9-0.2,1.8-0.3,2.7 c-0.1,0.9-0.3,1.8-0.4,2.7c-0.3,1.9-0.6,3.8-0.9,5.7c-0.4,1.9-0.9,3.9-1.3,6c-1.9,8.1-4.6,16.9-8.4,25.8 c-3.8,8.9-8.6,17.9-14.5,26.5c-7.1,10.2-15.4,19.9-24.7,28.4c-9.3,8.4-19.5,15.8-30,21.7c-10.5,5.9-21.3,10.3-31.8,13.4 c-10.4,3.1-20.5,4.8-29.5,5.6c-9,0.7-19.9,1-31.6,0c-1.5-0.1-2.9-0.3-4.4-0.5c-1.5-0.2-3-0.4-4.5-0.5c-1.5-0.2-3-0.5-4.5-0.7 c-1.5-0.3-3-0.5-4.5-0.8c-6-1.3-12.1-2.7-18.1-4.7c-11.9-3.8-23.5-9-33.5-15c-10-6-18.6-12.6-25.4-18.6 c-6.7-6-14.5-13.9-21.8-23.6c-0.9-1.2-1.8-2.4-2.7-3.7c-0.9-1.2-1.7-2.6-2.6-3.9c-0.9-1.3-1.8-2.6-2.6-4c-0.8-1.4-1.7-2.7-2.5-4.1 c-0.4-0.7-0.8-1.4-1.3-2.1c-0.4-0.7-0.8-1.4-1.2-2.1c-0.8-1.4-1.6-2.9-2.3-4.3c-0.8-1.5-1.4-3-2.1-4.4c-0.7-1.5-1.5-3-2.1-4.5 c-5.3-12.1-9-24.9-11.1-37c-2-12.1-2.5-23.5-2-32.8c0-1,0.1-1.9,0.2-2.7c0.1-0.9,0.2-1.7,0.3-2.5c0.2-1.6,0.3-3.1,0.5-4.6 c0.2-1.6,0.5-3.2,0.7-5.1c0.1-0.9,0.2-1.9,0.3-3c0.2-1.1,0.3-2.2,0.4-3.5c0.1-0.7,0.3-2.3,0.7-4.3c0.5-2.1,1.1-4.7,1.9-7.7 c0.5-1.5,0.9-3.1,1.5-4.8c0.3-0.8,0.5-1.7,0.8-2.6c0.3-0.9,0.6-1.7,0.9-2.6c0.6-1.8,1.3-3.6,2-5.5c0.8-1.8,1.6-3.7,2.3-5.5 c0.7-1.9,1.7-3.7,2.6-5.5c0.9-1.8,1.7-3.7,2.7-5.4c0.9-1.7,1.9-3.5,2.8-5.1c1-1.6,1.9-3.2,2.8-4.7c0.5-0.8,0.9-1.5,1.3-2.2 c0.5-0.7,0.9-1.4,1.4-2c0.9-1.3,1.7-2.6,2.5-3.7c1.6-2.2,2.9-4,3.8-5.3c1.8-2.5,6.7-9,14-16.7c7.3-7.6,17.2-16.4,28.3-23.5 c11-7.2,23-12.9,33.2-16.5c10.2-3.6,18.6-5.2,22.2-5.7c1.8-0.3,3.5-0.4,5-0.6c1.5-0.2,3-0.4,4.4-0.7c1.4-0.2,2.8-0.4,4.3-0.7 c1.5-0.2,3.1-0.6,4.8-0.9c1.8-0.3,3.7-0.5,5.9-0.9c0.6-0.1,1.1-0.2,1.7-0.2c0.6-0.1,1.2-0.1,1.8-0.2c1.3-0.1,2.6-0.2,4-0.4 c0.7-0.1,1.5-0.1,2.2-0.2c0.8,0,1.6,0,2.4-0.1c1.6,0,3.4-0.1,5.2-0.1c0.9,0,1.9,0,2.9,0c1,0,2,0.1,3,0.1c1,0,2.1,0.1,3.2,0.1 c1.1,0.1,2.2,0.2,3.4,0.3c2.3,0.2,5.1,0.4,8.2,1c1.6,0.3,3.2,0.5,4.9,0.8c1.7,0.4,3.5,0.8,5.4,1.2c7.5,1.8,16.1,4.4,25,8.3 c8.9,3.9,18.2,9,27.1,15.2c8.9,6.2,17.4,13.5,24.9,21.5c7.5,8,14.1,16.6,19.4,25.2c5.3,8.6,9.5,17.2,12.5,25 c6.2,15.6,7.9,28,8.5,32.3c0.3,4.4,0.8,8.1,1.1,11.2c0.2,1.6,0.4,3,0.6,4.3c0.2,1.3,0.3,2.4,0.5,3.4c0.4,2,0.7,3.5,1,4.5 c0.2,0.5,0.2,0.9,0.3,1.1c0.1,0.2,0.1,0.4,0.1,0.4c-0.1,1.5-0.1,4,0,7.2h7.2C1326,247.5,1326,246,1326,244.9z"/>
    <path fill="#5B5B5F" d="M1360.4,314.4c0.7-0.2,1.6-0.7,2.4-1.4c0.8-0.7,1.5-1.7,2.1-2.9c1.2-2.3,1.7-5.2,0.4-8 c-2-4.1-4-7.7-6-10.9c-2.1-3.2-4.2-6.1-6.2-8.6c-1-1.3-2-2.4-3-3.5c-1-1.1-2-2.1-2.9-3.1c-1.9-1.9-3.6-3.5-5.2-4.9 c-1.6-1.4-3-2.5-4.2-3.5c-1.2-0.9-2.3-1.7-3.1-2.2c-1.6-1.1-2.2-1.6-1.5-1.5c1.3,0.1,10.8,1,19.9,2c9.1,1,18,1.9,18,1.9 s1.2-2.4,1.8-5.2c0.2-0.7,0.3-1.4,0.3-2.1c0-0.7,0-1.4-0.1-2c-0.2-1.3-0.8-2.4-1.9-3c-1.9-1-9.2-2.5-16.9-3.6 c-7.7-1.1-15.9-2-19.6-2.4H1320c0,0,0.2,1.6,0.4,4.1c0.1,1.2,0.3,2.7,0.5,4.3c0.1,1.6,0.2,3.2,0.3,4.9c0.3,3.4,0.2,6.7,0.2,9.2 c0.1,2.5-0.1,4.2-0.1,4.2c6.3,3,12,6.8,16.7,10.9c4.7,4.1,8.6,8.6,11.7,12.7c3,4.1,5.4,7.9,7.1,10.6 C1358.6,312.9,1359.7,314.5,1360.4,314.4z"/>
    <path fill="#5B5B5F" d="M1332.6,249.2c0,0,2.1-1.1,5.4-3c3.3-1.8,7.7-4.5,12.1-7.3c4.4-2.8,8.8-6,12.3-8.5c3.6-2.6,6.1-4.6,6.8-5 c3-1.9,1.8-6.5,0.7-9.5c-1.2-3-9.3-0.7-13.4,2.1c-1,0.7-3.8,2.9-7.5,5.5c-3.7,2.7-8.1,5.8-12.6,8.6c-4.5,2.8-8.9,5.4-12.2,7.2 c-3.2,1.8-5.5,2.9-5.5,2.9l1.2,7.2h14.6C1333.3,249.2,1332.6,249.2,1332.6,249.2z"/>
    <path fill="#5B5B5F" d="M1304.5,327.7c0,0,1.6,0.7,5.7,1.1c2,0.2,4.7,0.2,8.2-0.1c1.7-0.1,3.7-0.4,5.7-0.7 c2.1-0.4,4.4-0.9,6.9-1.5c2.6-0.7,4.8-1.3,6.9-1.8c2.1-0.6,3.9-1.1,5.5-1.5c3.3-0.9,5.8-1.4,7.8-1.8c3.9-0.7,5.5-0.6,6.6-0.6 c0.5,0,0.9,0.7,1,1.8c0.1,1.1,0,2.6-0.3,4.2c-0.3,1.6-0.9,3.3-1.7,4.8c-0.8,1.5-2,2.7-3.3,3.3c-1.4,0.7-4.5,1.6-8.5,2.6 c-4,1-9,1.9-13.8,2.6c-1.2,0.2-2.4,0.3-3.6,0.5c-1.2,0.1-2.4,0.3-3.6,0.4c-2.4,0.2-4.6,0.5-6.6,0.6c-2,0.2-3.7,0.3-5.2,0.4 c-1.5,0.1-2.7,0.2-3.4,0.3c-2.9,0.4,3.6,4.2,11.5,8.2c7.9,4,17.2,7.9,19.4,9.3c2.2,1.3,1.2,5.6-0.8,9.3c-2.1,3.7-5.3,6.7-7.1,5.9 c-1.8-0.8-10-6.3-17.6-11.7c-7.7-5.3-14.9-10.5-14.9-10.5s0.2,0.5,0.6,1.4c0.4,0.9,0.9,2.2,1.6,3.8c1.3,3.2,3,7.5,4.6,12.3 c1.5,4.7,2.9,9.7,3.9,14.1c0.5,2.2,0.9,4.2,1.1,5.9c0.3,1.7,0.4,3.1,0.4,4c0,1.9-0.5,3.6-1.4,5.1c-0.9,1.5-2.1,2.7-3.3,3.7 c-2.4,1.8-4.8,2.4-5.1,0.9c-0.2-0.7-0.8-4-1.7-8.4c-0.5-2.2-1.1-4.7-1.7-7.3c-0.7-2.7-1.5-5.4-2.3-8.2c-0.8-2.7-1.7-5.4-2.6-8 c-0.9-2.5-1.9-4.9-2.7-7c-1.7-4.2-3.2-7.1-3.8-7.8c-0.3-0.4-0.2-1.1,0.2-2c0.4-0.9,1-2.2,1.9-3.6c0.4-0.7,0.9-1.4,1.4-2.2 c0.5-0.8,1.1-1.5,1.6-2.4c1.1-1.7,2.3-3.4,3.5-5.2c1.2-1.8,2.3-3.5,3.4-5.2c0.5-0.8,1.1-1.6,1.6-2.4c0.5-0.8,0.9-1.5,1.3-2.2 c0.8-1.3,1.6-2.5,2.1-3.2c0.3-0.4,0.4-0.7,0.6-0.9C1304.4,327.8,1304.5,327.7,1304.5,327.7z"/>
    <path fill="#5B5B5F" d="M1247.5,388.8c0,0,2.3,1.2,5.9,3c0.9,0.4,1.9,0.9,2.9,1.4c1,0.5,2.2,1,3.3,1.5c2.3,1,4.9,2.1,7.5,3.1 c1.3,0.5,2.7,1,4,1.5c1.3,0.5,2.6,0.9,3.9,1.3c2.6,0.8,5.1,1.6,7.4,2.2c4.6,1.3,8.2,1.9,9.4,1.9c2.5,0,3.2,2.6,2.8,5.4 c-0.4,2.8-2,5.7-4,6.4c-1,0.3-4,0.1-8-0.6c-4.1-0.8-9-2.1-13.8-3.5c-4.9-1.6-9.6-3.3-13.3-4.7c-3.7-1.5-6.4-2.6-7.3-2.9 c-3.5-1,6.8,16.2,10.3,23.9c0.9,1.9,0.9,3.9,0.5,5.8c-0.5,1.8-1.4,3.6-2.6,5c-1.2,1.4-2.6,2.5-3.8,3.2c-1.3,0.6-2.4,0.7-3.1,0.1 c-1.4-1.1-4.7-8.8-8-16.6c-3.2-7.7-6.4-15.5-7.1-17c-0.3-0.7-0.8,0.6-1.5,3.3c-0.3,1.3-0.7,2.9-1.1,4.7c-0.2,0.9-0.4,1.9-0.6,2.9 c-0.2,1-0.5,2-0.7,3c-1,4.1-2.2,8.6-3.4,12.6c-1.2,3.8-2.4,7.1-3.2,8.9c-0.8,1.8-1.9,3.6-3.2,5.2c-1.3,1.6-2.9,3-4.5,4.1 c-1.6,1.1-3.2,2-4.8,2.4c-1.5,0.4-3,0.3-4.1-0.3c-1.1-0.6-0.8-2.5,0.3-5.6c0.5-1.5,1.3-3.3,2.1-5.3c0.8-2,1.8-4.3,2.7-6.7 c0.9-2.4,1.9-5,2.8-7.7c0.9-2.8,1.7-5.7,2.4-8.7c0.7-3,1.3-6,1.6-9.1c0.4-3.1,0.6-6.3,0.5-9.4c0,0,0.5-0.2,1.2-0.5 c0.8-0.4,1.9-0.8,3.3-1.4c2.6-1.3,6.2-2.9,9.6-4.8c0.9-0.5,1.7-0.9,2.6-1.4c0.4-0.2,0.8-0.5,1.3-0.7c0.4-0.2,0.8-0.5,1.2-0.7 c1.6-0.9,3-1.8,4.3-2.6c1.3-0.7,2.3-1.4,3-1.9C1247.1,389.1,1247.5,388.8,1247.5,388.8z"/>
    <path fill="#5B5B5F" d="M1161.1,415.1c0,0,0.8,1.2,2.1,3.2c1.3,2,3.3,4.7,5.6,7.6c2.3,2.9,5.1,5.9,8,8.8c1.4,1.5,2.9,2.7,4.4,3.9 c1.5,1.2,2.9,2.2,4.3,3.1c1.4,0.9,2.7,1.7,3.8,2.5c1.2,0.7,2.3,1.4,3.3,2.1c2,1.3,3.5,2.5,4.7,3.5c2.3,2,2.8,3.6,1.5,4.8 c-1.3,1.2-4,2.5-6.8,3.1c-2.8,0.5-5.8,0.2-7.5-1.5c-0.9-0.9-2.8-2.3-5.2-4.1c-2.5-1.9-5.4-4.1-8.4-6.4c-1.5-1.1-3-2.4-4.4-3.7 c-1.4-1.2-2.8-2.5-4.1-3.7c-1.3-1.2-2.5-2.3-3.5-3.4c-1-1.1-2-2.2-2.7-3.1c-5.7-7.2-5,26.3-6.7,30.2c-0.9,2-3.7,3.3-6.6,3.8 c-2.9,0.4-5.9-0.1-6.8-2.2c-1-2.1-1.1-9.9-0.9-17.6c0.1-7.7,0.4-15.3,0-17c-0.4-1.7-1.7-0.5-4.7,2.5c-1.5,1.5-3.4,3.5-5.8,5.8 c-1.2,1.2-2.6,2.4-4.2,3.8c-1.6,1.3-3.3,2.6-5.2,4c-1.9,1.4-3.7,2.5-5.3,3.5c-0.8,0.5-1.6,0.9-2.3,1.3c-0.7,0.4-1.4,0.7-2.1,1 c-2.7,1.2-4.8,1.7-6.6,1.9c-3.5,0.4-5.1-0.9-6.4-2c-2.5-2.2-2.4-7,0.3-8.1c0.7-0.3,2.9-1.4,6-3.1c3-1.7,6.9-4.3,10.8-7.1 c1-0.7,1.9-1.4,2.9-2.2c1-0.8,1.9-1.6,2.9-2.4c1.9-1.6,3.7-3.3,5.3-5c3.3-3.3,6.1-6.9,7.9-10c0,0,2,0.3,5,0.8 c1.5,0.2,3.3,0.4,5.2,0.6c1,0.1,1.9,0.2,2.9,0.3c1,0.1,2,0.1,3,0.2c2,0.1,4.1,0.2,6,0.3c1.9,0,3.7,0,5.2,0 C1159.1,415.2,1161.1,415.1,1161.1,415.1z"/>
    <path fill="#5B5B5F" d="M1054.8,379c0,0-1.3,0.7-3.6,1.8c-2.3,1-5.5,2.4-9.3,3.7c-1.9,0.7-4,1.3-6.2,1.9c-2.2,0.6-4.4,1.1-6.7,1.5 c-4.6,0.8-9.5,1.3-13.9,1c-4.5-0.3-7.8-0.4-10.1-0.5c-2.3-0.1-3.7,0-4.3,0.2c-1.3,0.5,0,1.9,1.8,3.9c1.9,1.9,4.7,4.3,9.2,5.9 c2.3,0.8,4.9,1.4,7.9,1.6c0.8,0.1,1.5,0.1,2.3,0.1c0.8,0,1.7,0,2.5-0.1c1.8-0.1,3.6-0.3,5.6-0.6c2-0.3,3.8-0.7,5.4-1 c1.7-0.3,3.2-0.7,4.7-1.1c2.8-0.7,5.1-1.4,7-2c1.8-0.6,3.1-1,4-1.4c0.9-0.4,1.3-0.5,1.3-0.5s-1.1,1-2.7,2.7 c-1.7,1.6-3.9,3.9-6.3,6.3c-4.8,4.9-10.1,10.5-11.9,14.1c-0.9,1.8-1.1,3.7-0.9,5.6c0.2,1.8,0.9,3.6,1.8,5.2 c0.9,1.5,2.1,2.8,3.2,3.7c1.1,0.9,2.3,1.2,3.1,1c1.7-0.4,7-8.9,12.1-17.5c5.1-8.5,10-17.1,10.5-17.9c0.3-0.4,0.5,1.9,0.9,5.8 c0.2,1.9,0.4,4.3,0.8,6.8c0.3,2.5,0.7,5.2,1.2,8c0.9,5.6,2.2,11.2,3.5,15.9c1.2,4.6,2.6,7.9,3.2,8.8c0.7,0.8,1.8,1.6,3.1,2.3 c0.7,0.3,1.4,0.6,2.1,0.9c0.7,0.2,1.5,0.4,2.2,0.6c2.9,0.5,5.5,0.3,5.6-1c0.1-0.7-0.9-3.5-2.1-7.5c-0.3-1-0.6-2.1-1-3.2 c-0.3-1.2-0.6-2.4-1-3.7c-0.6-2.5-1.3-5.3-1.8-8c-0.6-2.7-1-5.7-1.4-8.5c-0.3-2.8-0.6-5.6-0.7-8.3c-0.1-2.6,0-5.1,0.2-7.4 c0.2-2.2,0.6-4.2,1-5.8c0,0-1.5-0.7-3.7-1.7c-1.1-0.6-2.3-1.3-3.6-2c-0.7-0.4-1.4-0.7-2.1-1.1c-0.7-0.4-1.4-0.8-2.1-1.2 c-1.4-0.8-2.8-1.7-4.1-2.5c-0.7-0.4-1.3-0.8-1.9-1.1c-0.6-0.4-1.1-0.8-1.6-1.1C1056.1,379.9,1054.8,379,1054.8,379z"/>
    <path fill="#5B5B5F" d="M1012.7,332.5c0,0-0.9,1.9-2.6,5.9c-0.2,0.5-0.4,1-0.6,1.6c-0.2,0.6-0.4,1.2-0.6,1.8 c-0.4,1.3-0.9,2.6-1.4,4.2c-1,3.1-2.1,6.8-3,10.9c-0.9,4.2-1.7,7.9-2.3,10.9c-0.6,3-1,5.4-1.4,7.3c-0.9,3.9-1.6,5.8-2.6,6.6 c-1,0.8-3.3,0-5.5-1.8c-1.1-0.9-2.2-2-3.1-3.3c-0.9-1.3-1.5-2.8-1.8-4.2c-0.2-1.5,0-4.9,0.7-9.1c0.4-2.1,0.9-4.5,1.4-6.8 c0.6-2.4,1.1-4.8,1.9-7.2c1.5-4.8,3-9.1,4.3-12.3c1.3-3.2,2.2-5.3,2.2-5.3s-7.3,3.5-15.1,7.2c-7.8,3.7-16.2,7.5-18.4,8.2 c-2.2,0.7-4.2-2.1-5.1-5.5c-0.9-3.3-0.8-7.1,0.8-8.2c3.3-2.2,32.4-14.5,32.4-14.5s-6.4-1-14.1-3.1c-3.7-1.1-7.7-2.5-11.2-4.1 c-3.6-1.5-6.5-3.3-8.3-5c-1.8-1.6-3.4-3.3-4.7-4.9c-1.2-1.6-2.2-3.1-2.9-4.5c-1.3-2.8-1.3-5,0.4-6.1c0.4-0.3,1.4-0.2,2.7,0.2 c1.3,0.4,3,1.1,5,1.9c2,0.9,4.2,1.9,6.6,2.9c1.2,0.5,2.4,1.1,3.7,1.7c1.3,0.5,2.6,1.1,3.9,1.6c5.3,2.2,10.7,4.2,15.6,5.6 c4.8,1.4,8.8,2.3,11.3,2.3c0,0,0.6,1.6,1.6,4c0.5,1.2,1,2.6,1.7,4.1c0.7,1.5,1.4,3,2.1,4.6c0.4,0.8,0.7,1.6,1.1,2.3 c0.4,0.8,0.8,1.5,1.1,2.2c0.7,1.4,1.4,2.8,2,3.9c0.6,1.2,1.2,2.1,1.5,2.7C1012.5,332.2,1012.7,332.5,1012.7,332.5z"/>
    <path fill="#5B5B5F" d="M1340.2,309.3c0.4-1.5,0.3-3.1-0.4-4.6c-0.7-1.4-1.8-2.6-3.3-3c-1.6-0.5-3.1-0.1-4.4,0.7 c-1.2,0.8-2.4,2-3,3.3c-0.7,1.5-0.8,3.3-0.3,4.9c0.5,1.6,1.3,3,2.8,3.7c1.6,0.8,3.5,0.6,5.1-0.4 C1338.3,312.9,1339.7,311.2,1340.2,309.3z"/>
    <path fill="#5B5B5F" d="M1287.6,388.5c1.3-2,1.8-5.1-0.1-7c-2-2-5.4-1.7-7.4-0.1c-1.4,1.1-2.3,2.9-2.4,4.7 c-0.1,1.8,0.4,3.6,1.7,4.5c1.1,0.8,2.7,1,4.2,0.6C1285.2,390.8,1286.7,389.9,1287.6,388.5z"/>
    <path fill="#5B5B5F" d="M1198.9,435.3c3.8-0.8,6.5-4.9,5-8.4c-1.4-3.3-5.6-4.9-8.8-3.3c-3.2,1.4-4.6,5.4-3.1,8.4 c0.6,1.2,1.6,2.2,2.9,2.8C1196.1,435.3,1197.5,435.6,1198.9,435.3z"/>
    <path fill="#5B5B5F" d="M1093.6,428.1c4.1,0.8,8.1-2,8.5-6c0.2-1.9-0.3-3.7-1.3-5.2c-1-1.4-2.5-2.5-4.1-2.9 c-2.1-0.5-4.3,0.3-6,1.8c-1.7,1.5-2.8,3.6-2.7,5.8C1088.1,424.5,1090.4,427.3,1093.6,428.1z"/>
    <path fill="#5B5B5F" d="M1015.6,375.8c1.1,1.1,2.7,2,4.4,2.3c1.6,0.3,3.3,0,4.6-1.1c1.3-1.1,1.9-2.8,1.9-4.5 c0-0.9-0.2-1.7-0.4-2.5c-0.3-0.8-0.7-1.6-1.2-2.2c-1.3-1.6-3.4-2.5-5.5-2.6c-2-0.1-4,0.5-5.2,2 C1012.2,369.5,1013.2,373.4,1015.6,375.8z"/>
    <path fill="#5B5B5F" d="M971,285.9c0.5,1.9,1.8,3.3,3.3,4c1.5,0.8,3.3,1,4.9,0.5c1.6-0.4,2.9-1.5,3.8-2.7c0.5-0.6,0.8-1.4,1-2.1 c0.2-0.7,0.3-1.5,0.3-2.3c-0.2-2-1.4-3.7-3.1-4.8c-1.7-1.1-3.8-1.6-5.8-1C972.2,278.4,969.9,282,971,285.9z"/>
    <path fill="#5B5B5F" d="M1310.8,198.7c0,0,2.4,0.2,6.2,0.7c3.7,0.5,8.7,1.3,13.9,2.4c2.6,0.5,5.3,1.1,7.8,1.7 c2.5,0.6,4.9,1.2,7.1,1.8c4.3,1.2,7.7,2.2,8.9,2.5c2.5,0.6,5.8,0.7,8.5,0.2c2.7-0.4,4.8-1.5,4.8-3c-0.1-3.2-0.5-7.9-4-8.6 c-0.9-0.2-4-1.1-8.2-2.3c-2.1-0.6-4.5-1.2-6.9-1.8c-1.2-0.3-2.5-0.6-3.8-0.9c-1.3-0.3-2.6-0.6-3.9-0.8c-5.2-1.1-10.2-1.9-13.9-2.5 c-3.7-0.5-6.2-0.8-6.2-0.8s7.7-3.8,15.8-8.2c8.1-4.4,16.5-9.5,18.1-11.4c1.7-2,0.5-4.9-1-7.3c-0.8-1.2-1.6-2.3-2.3-3.1 c-0.3-0.4-0.6-0.7-0.9-0.9c-0.2-0.2-0.3-0.3-0.3-0.3s-7.9,4-16.1,8.2c-8.2,4.2-16.7,8.5-17.8,9c-1.2,0.5,1.5-2.5,5.6-9.9 c3.9-7.5,9.1-19.4,10.5-37.3c0.2-3-1.2-5.7-3.2-7.3c-2-1.7-4.3-2.6-5.8-2.4c-0.7,0.1-1.2,2-1.9,5.1c-0.6,3.1-1.4,7.4-2.8,12.4 c-0.7,2.5-1.6,5.1-2.6,7.8c-0.3,0.7-0.5,1.3-0.8,2c-0.3,0.7-0.6,1.4-0.9,2.1c-0.6,1.4-1.3,2.8-2.1,4.2c-1.5,2.8-3.2,5.6-5.1,8.3 c-1.9,2.7-4.1,5.4-6.6,8c0,0,0.8,2,2,5c0.5,1.5,1.2,3.3,1.8,5.2c0.3,0.9,0.7,1.9,1,2.9c0.3,1,0.6,2,0.9,3c1.3,4,2.2,8.2,3,11.2 c0.4,1.5,0.6,2.8,0.7,3.7C1310.7,198.2,1310.8,198.7,1310.8,198.7z"/>
    <path fill="#5B5B5F" d="M1266.6,124.1c0,0,1.3-1.3,5-3c1.9-0.9,4.4-1.9,7.7-2.9c3.3-0.9,7.4-1.8,12.6-2.4 c5.1-0.5,9.3-0.9,12.7-1.3c3.4-0.4,5.9-0.7,7.9-1.1c3.9-0.7,5.4-1.4,6.4-1.8c1-0.3,0.3-3.1-1.4-5.9c-1.8-2.7-4.6-5.4-7.6-5.8 c-1.5-0.2-4.8,0.1-8.9,0.6c-2,0.3-4.3,0.6-6.6,1c-2.3,0.4-4.8,0.9-7.2,1.5c-4.8,1.1-9.5,2.3-13.4,3.5c-3.9,1.1-6.9,2.1-8.3,2.4 c-1.4,0.3-1-1,0.6-3.2c1.6-2.2,4.3-5.3,7.2-8.6c5.9-6.5,13.2-13.5,14.8-15.6c3.4-4.2-9.9-14.4-12.8-11.4c-1.4,1.4-7,9.5-12.3,17.2 c-5.3,7.7-10.2,15.1-10.2,15.1s0.2-2.2,0.3-5.7c0.1-1.8,0.1-3.8,0.1-6c0-2.2-0.1-4.6-0.2-7.1c-0.1-2.5-0.3-5.1-0.5-7.5 c-0.2-2.4-0.5-4.8-0.9-7c-0.7-4.4-1.4-8.1-2.1-9.8c-1.3-3.4-4.6-5.7-7.5-6.6c-2.9-0.8-5.4-0.4-5.1,1.1c0.1,0.7,0.7,4,1.4,8.4 c0.7,4.5,1.3,10.3,1.7,16c0.2,2.8,0.3,5.7,0.4,8.4c0.1,2.7,0,5.3,0,7.5c-0.1,2.2-0.2,4.2-0.3,5.6c-0.1,1.5-0.3,2.6-0.5,3 c-0.3,0.9,1.3,2.6,3.9,4.5c1.3,0.9,2.8,2.1,4.5,3.2c1.6,1.1,3.4,2.3,5.1,3.5c1.7,1.2,3.5,2.4,5.1,3.6c1.6,1.2,3.1,2.3,4.4,3.2 c0.6,0.5,1.2,0.9,1.8,1.3c0.5,0.4,0.9,0.7,1.3,1C1266.2,123.8,1266.6,124.1,1266.6,124.1z"/>
    <path fill="#5B5B5F" d="M1191.6,87.4c0,0,0.4-0.5,1.2-1.4c0.8-0.8,1.8-2.1,3.2-3.5c1.4-1.4,3-3.1,4.8-5c1.8-1.8,3.8-3.8,5.9-5.6 c2.1-1.9,4.2-3.7,6.4-5.5c2.1-1.8,4.2-3.4,6.2-4.8c3.8-2.8,6.9-4.7,8.1-5.2c2.3-0.9,2.1-3.5,0.7-6c-1.4-2.4-3.9-4.7-6-4.6 c-1,0-3.8,1.4-7.3,3.6c-1.7,1.1-3.6,2.3-5.6,3.7c-2,1.4-4,3-6,4.5c-2,1.6-3.9,3.2-5.7,4.7c-1.8,1.6-3.5,3.1-5,4.5 c-2.9,2.7-5,4.7-5.8,5.2c-2.9,2.2,0.5-17.5,1-25.9c0.2-4.2-2.6-7.5-5.9-9.4c-3.2-1.8-6.8-2-7.7-0.5c-0.9,1.6-1.2,9.9-1.5,18.3 c-0.2,8.4-0.3,16.8-0.5,18.4c-0.1,0.8-1-0.3-2.5-2.6c-0.4-0.6-0.8-1.2-1.3-1.9c-0.5-0.7-0.9-1.4-1.5-2.1c-1.1-1.5-2.2-3.2-3.4-5 c-1.2-1.8-2.5-3.6-3.8-5.4c-1.3-1.8-2.6-3.5-3.9-5.1c-2.5-3.2-4.8-5.9-6.2-7.3c-2.7-2.8-6.7-4.9-10.5-5.9 c-1.9-0.5-3.7-0.6-5.3-0.4c-1.6,0.2-2.9,0.7-3.7,1.7c-0.9,0.9,0.1,2.7,2.2,5.1c1,1.2,2.4,2.6,3.9,4.2c0.7,0.8,1.5,1.6,2.4,2.5 c0.8,0.9,1.7,1.8,2.6,2.8c1.7,1.9,3.6,4.1,5.4,6.3c0.9,1.1,1.8,2.3,2.7,3.4c0.9,1.2,1.8,2.5,2.6,3.7c1.7,2.6,3.3,5.2,4.8,8 c1.5,2.7,2.8,5.5,3.9,8.5c0,0,2,0.1,4.9,0.2c0.7,0,1.5,0.1,2.4,0.1c0.8,0.1,1.7,0.2,2.6,0.3c1.8,0.2,3.8,0.4,5.7,0.6 c1.9,0.3,3.9,0.6,5.7,0.8c0.9,0.1,1.8,0.2,2.6,0.4c0.8,0.2,1.6,0.3,2.3,0.5C1189.7,87,1191.6,87.4,1191.6,87.4z"/>
    <path fill="#5B5B5F" d="M1101.5,93.8c0,0,0.1-0.4,0.2-1c0.1-0.6,0.3-1.6,0.6-2.7c0.5-2.3,1.4-5.5,2.5-9.1c0.3-0.9,0.6-1.8,0.9-2.7 c0.3-0.9,0.7-1.8,1-2.8c0.7-1.8,1.5-3.7,2.4-5.6c0.8-1.8,1.7-3.6,2.7-5.3c0.9-1.6,1.9-3.1,2.9-4.4c1.9-2.6,3.6-4.9,5-6.8 c1.4-1.9,2.4-3.5,3.1-4.9c1.4-2.7,1.4-4.3-0.3-5c-0.8-0.3-2-0.6-3.3-0.7c-1.3-0.1-2.8-0.1-4.2,0.2c-2.8,0.6-5.5,1.8-6.5,4.1 c-0.3,0.6-0.7,1.3-1.3,2.3c-0.6,1-1.3,2.2-2.1,3.4c-0.8,1.3-1.7,2.7-2.7,4.2c-0.9,1.5-1.9,3-2.9,4.7c-1.9,3.3-3.8,6.7-5.3,9.9 c-1.5,3.2-2.7,6.1-3.5,8.3c-0.7,2.2-1.9,1.8-3.4,0.1c-1.5-1.8-3.3-5-5-8.5c-3.6-7.1-7.1-15.8-8.6-17.3c-1.5-1.5-4.7-1.8-7.5-1.2 c-2.9,0.6-5.4,2.3-5.5,4.6c-0.2,2.3,2.6,9.6,5.5,16.7c2.9,7.1,5.9,14.1,6.1,15.8c0.2,1.7-1.4,1.2-5.2-0.6 c-1.9-0.9-4.4-2.1-7.6-3.4c-3.1-1.2-6.9-2.6-11.5-3.9c-4.6-1.2-8.2-1.7-11.2-1.9c-1.5-0.1-2.8-0.1-3.9,0c-1.1,0.1-2.1,0.3-2.9,0.5 c-3.3,0.9-4.4,2.7-5.2,4.1c-1.6,3,0.3,7.4,3.2,7.4c0.4,0,1.2,0.1,2.3,0.2c1.2,0.1,2.7,0.3,4.4,0.6c1.7,0.3,3.7,0.6,5.8,1.1 c1.1,0.2,2.2,0.5,3.3,0.7c1.1,0.3,2.3,0.6,3.5,0.9c2.3,0.7,4.7,1.4,7,2.2c2.3,0.8,4.6,1.7,6.8,2.7c4.4,2,8.2,4.3,11,6.5 c0,0,0.1-0.1,0.3-0.2c0.2-0.1,0.5-0.3,0.9-0.5c0.8-0.4,1.9-1,3.3-1.8c0.7-0.4,1.4-0.8,2.2-1.2c0.8-0.4,1.6-0.9,2.5-1.3 c1.7-0.8,3.6-1.7,5.4-2.6c1.8-0.9,3.7-1.6,5.5-2.4c0.9-0.4,1.7-0.7,2.5-1.1c0.8-0.3,1.6-0.6,2.3-0.9 C1099.6,94.6,1101.5,93.8,1101.5,93.8z"/>
    <path fill="#5B5B5F" d="M1015.2,165.8c0,0-1.5-0.2-4-0.3c-1.3-0.1-2.8-0.1-4.5-0.2c-0.9,0-1.8,0-2.7,0c-0.9,0-1.9,0-2.9,0.1 c-4,0.2-8.6,0.6-13.3,1.4c-4.6,0.9-9.2,2.2-13.4,4c-8.1,3.7-11.9,5.5-13.4,5.5c-1.5,0-0.6-1.8,0.4-4.3c0.5-1.3,1.2-2.7,2.2-4.2 c1-1.5,2.5-3.1,4.2-4.6c0.9-0.8,1.9-1.5,3-2.3c0.6-0.4,1.1-0.7,1.8-1.1c0.6-0.3,1.3-0.7,2-1c2.8-1.3,6.1-2.4,9.9-3.2 c3.9-0.8,7.3-1.2,10.2-1.6c2.9-0.3,5.2-0.6,7.2-0.7c3.9-0.2,5.7-0.1,5.7-0.1s-5.4-2.3-11.7-5.1c-6.2-2.9-13.2-6.2-16.1-8.9 c-2.9-2.7-3.5-6.8-2.9-10.3c0.3-1.8,0.9-3.4,1.7-4.6c0.8-1.2,1.7-2,2.5-2.1c1.7-0.2,9.7,5.8,17.5,12c7.8,6.2,15.4,12.4,16.2,13 c0.4,0.3-0.2-2-1.3-5.8c-1-3.7-2.3-8.9-3.4-14.5c-1-5.4-1.9-11.3-2.4-16c-0.4-4.7-0.4-8.3-0.1-9.3c0.6-2.1,3.2-4.5,5.6-6.1 c2.5-1.6,4.9-2.3,5.5-1.1c0.3,0.6,0.5,3.6,0.8,7.8c0.2,2.1,0.4,4.5,0.7,7.1c0.3,2.6,0.7,5.4,1.2,8.2c0.5,2.8,1.1,5.7,1.7,8.4 c0.7,2.8,1.5,5.5,2.4,8c1.7,5,3.7,9.1,5.8,11.8c0,0-1.1,1.2-2.7,3c-1.7,1.7-3.7,4.3-5.8,6.8c-1.1,1.2-2,2.5-2.9,3.8 c-0.9,1.2-1.8,2.4-2.5,3.3c-0.8,1-1.3,1.8-1.7,2.4C1015.4,165.4,1015.2,165.8,1015.2,165.8z"/>
    <path fill="#5B5B5F" d="M992.6,224.2c0,0-0.1-0.1-0.3-0.3c-0.2-0.2-0.5-0.5-0.9-0.8c-0.7-0.8-1.9-1.9-3.3-3.5 c-1.4-1.6-3.2-3.6-5.3-6.1c-2-2.5-4.2-5.5-6.7-9.1c-0.6-0.9-1.2-1.8-1.8-2.6c-0.5-0.8-1.1-1.6-1.5-2.4c-1-1.6-1.9-3-2.7-4.3 c-1.6-2.6-3-4.7-4.1-6.4c-2.1-3.3-3.5-4.8-4.7-5.2c-1.2-0.4-3.2,1.2-4.6,3.7c-1.4,2.5-2.3,5.9-1.8,8.8c0.3,1.5,1.9,4.6,4,8.3 c0.5,0.9,1.1,1.9,1.8,2.9c0.6,1,1.3,2,2,3c1.4,2,2.9,4.1,4.4,6c2.9,3.9,6.1,7.4,8.5,10c2.3,2.5,3.9,4.1,3.9,4.1s-8-0.7-16.7-1.3 c-8.6-0.6-17.8-1.2-20.1-1c-2.3,0.2-3,3.5-2.7,7c0.2,3.4,1.9,6.9,3.8,7.3c3.8,0.9,35.5,1.8,35.5,1.8s-1.4,0.8-3.7,2.2 c-1.1,0.7-2.4,1.5-3.9,2.5c-1.5,1-2.9,2.1-4.5,3.2c-3.1,2.4-6.3,5.1-9.1,7.8c-2.6,2.7-4.8,5.4-6,7.6c-0.6,1.1-1.1,2.2-1.5,3.2 c-0.4,1-0.8,2.1-1.1,3c-0.6,1.9-1,3.7-1.1,5.3c-0.3,3.1,0.6,5.1,2.6,5.5c1,0.2,3.3-1.7,6.3-4.7c3.1-3,7-7,11.1-10.9 c4.2-3.9,8.6-7.8,12.6-10.8c4-3,7.5-5.3,9.8-6.2c0,0,0-0.4,0-1.2c0-0.4,0-0.8,0-1.4c0-0.5,0-1.1,0-1.8c0-1.3,0.1-2.8,0.1-4.4 c0-0.8,0-1.6,0.1-2.5c0.1-0.8,0.1-1.7,0.2-2.6c0.1-1.7,0.3-3.4,0.4-5.1c0.1-1.6,0.4-3.1,0.5-4.4 C992.4,225.9,992.6,224.2,992.6,224.2z"/>
    <path fill="#5B5B5F" d="M1308.4,127.1c1.7,2.6,1.9,6.6-0.7,8.5c-2.6,2-6.3,0.9-8.3-1.1c-2.4-2.3-3-6.6-0.9-8.9 c1.2-1.3,3.1-1.7,4.9-1.4C1305.3,124.4,1307.2,125.5,1308.4,127.1z"/>
    <path fill="#5B5B5F" d="M1230,74.6c1,0.7,1.9,1.6,2.3,2.9c0.5,1.2,0.6,2.5,0,3.7c-0.6,1.3-1.7,2.1-3,2.6c-1.3,0.4-2.7,0.5-3.9,0.2 c-1.7-0.5-3.1-1.9-3.8-3.6c-0.7-1.7-0.9-3.4,0-4.8C1223.1,73.1,1227.2,72.8,1230,74.6z"/>
    <path fill="#5B5B5F" d="M1128.8,59.3c1.9-0.4,3.9,0.3,5.4,1.4c1.5,1.1,2.4,2.8,2.4,4.7c0,1.8-0.9,3.4-2.3,4.6 c-0.7,0.6-1.4,1-2.3,1.3c-0.8,0.3-1.7,0.5-2.7,0.4c-3.5-0.2-6.3-3.5-6-6.8C1123.6,62.1,1126,59.8,1128.8,59.3z"/>
    <path fill="#5B5B5F" d="M1344.8,213.7c0.7,3.8-1.9,7.9-5.8,7.9c-3.6,0-6.7-3.2-6.5-6.8c0.1-0.9,0.3-1.7,0.6-2.4 c0.4-0.7,0.9-1.4,1.5-2c1.2-1.1,2.8-1.8,4.5-1.7C1341.8,208.8,1344.3,211,1344.8,213.7z"/>
    <path fill="#5B5B5F" d="M1032.2,102.4c1.7-1.1,3.8-1.5,5.7-1c1.9,0.5,3.5,1.7,4.5,3.4c0.9,1.7,1,3.6,0.5,5.3 c-0.4,1.8-1.4,3.3-2.9,4.3c-0.9,0.6-2,0.9-3.1,1c-1.1,0.1-2.2-0.1-3.3-0.5c-2.1-0.8-3.9-2.4-4.6-4.5c-0.4-1.3-0.3-2.9,0.2-4.4 C1029.8,104.6,1030.8,103.3,1032.2,102.4z"/>
    <path fill="#5B5B5F" d="M976.4,185.1c0.3-0.8,0.7-1.5,1.3-2.1c0.6-0.6,1.2-1.2,1.9-1.6c1.4-0.9,3.1-1.2,4.7-0.7 c1.7,0.6,2.8,1.9,3.4,3.5c0.3,0.8,0.5,1.7,0.5,2.5c0,0.9,0,1.7-0.3,2.5c-0.6,2-2.2,3.6-4.1,4.5c-1.9,0.9-4,1.1-5.6,0.1 C975.7,192.3,975.2,188.2,976.4,185.1z"/>
  </g>
</svg>